<svg width="143" height="86" viewBox="0 0 143 86" fill="none" xmlns="http://www.w3.org/2000/svg">
<g id="Group">
<path id="Vector" fill-rule="evenodd" clip-rule="evenodd" d="M102.808 80.9141C115.539 81.2219 128.549 80.6063 140.721 84.9715C141.447 85.2289 142.245 84.8539 142.507 84.1264C142.764 83.3989 142.39 82.5986 141.665 82.3356C129.207 77.8697 115.902 78.4293 102.875 78.1159C102.105 78.0935 101.463 78.7091 101.447 79.4814C101.424 80.2537 102.038 80.8917 102.808 80.9141Z" fill="#1A1A1A"/>
<path id="Vector_2" fill-rule="evenodd" clip-rule="evenodd" d="M101.664 62.3805C105.632 58.7194 109.963 55.9766 115.199 54.6172C115.947 54.4236 116.393 53.6597 116.203 52.912C116.008 52.1643 115.243 51.7149 114.501 51.9086C108.808 53.386 104.092 56.342 99.7778 60.3205C99.2085 60.8432 99.1694 61.7291 99.694 62.2977C100.213 62.8658 101.101 62.9032 101.664 62.3805Z" fill="#1A1A1A"/>
<g id="Group_2">
<path id="Vector_3" fill-rule="evenodd" clip-rule="evenodd" d="M90.6248 22.4094C92.4442 16.1554 96.0274 11.2631 101.519 7.73008C102.167 7.31315 102.356 6.44684 101.938 5.79709C101.525 5.14735 100.66 4.95818 100.012 5.37511C93.9344 9.28699 89.9606 14.7009 87.9458 21.6254C87.7281 22.3663 88.1579 23.1442 88.8946 23.3603C89.6369 23.5768 90.4127 23.1504 90.6248 22.4094Z" fill="#1A1A1A"/>
</g>
<path id="Vector_4" fill-rule="evenodd" clip-rule="evenodd" d="M27.9199 13.9219C26.8371 15.1996 25.866 16.5763 25.04 18.042C24.6716 18.6945 24.0242 20.0813 23.9237 21.2705C23.8121 22.5375 24.2418 23.6065 25.3469 24.1695C26.8147 24.916 27.9868 24.8383 28.891 24.3866C29.7617 23.9529 30.4425 23.1006 30.8723 21.9578C31.6927 19.7735 31.5699 16.4353 31.1402 14.5303C32.2955 13.3349 33.5624 12.2508 34.9186 11.2871C45.0206 4.10975 59.8387 6.75629 71.2411 17.4879C75.2317 21.2454 77.1516 29.1363 78.1506 37.6501C79.7078 50.9062 78.8204 65.7121 78.6976 70.0499C78.6697 71.121 78.7701 71.7567 78.8259 71.8838C79.0882 72.5083 79.5515 72.6706 79.8752 72.7322C80.344 72.8161 80.7179 72.7266 81.0193 72.5699C81.4267 72.355 81.7617 71.9767 81.9179 71.393C82.0016 71.0706 82.0239 70.6218 82.0128 70.1433C82.0016 69.8114 81.9346 69.4488 82.0016 69.2109C82.4369 67.6876 82.9616 66.2001 83.475 64.7019C85.1885 59.6657 87.4042 54.9463 89.8655 50.2324C97.6848 35.2543 105.247 19.4282 118.067 8.01659C118.642 7.50452 118.698 6.61918 118.185 6.04163C117.677 5.46408 116.795 5.41146 116.214 5.92409C103.138 17.5612 95.3686 33.6598 87.3931 48.9346C85.3001 52.9444 83.3801 56.9599 81.7839 61.16C81.9458 53.7302 81.8844 43.4457 80.5282 34.346C79.3226 26.253 77.0288 19.1008 73.1498 15.448C60.6591 3.69169 44.3676 1.14143 33.3057 9.00436C32.1225 9.84606 30.9951 10.7717 29.9458 11.7757C24.1581 1.29647 11.7679 -2.90366 0.817554 2.10848C0.114323 2.42915 -0.192637 3.25966 0.125491 3.96201C0.4492 4.66436 1.27519 4.97441 1.97842 4.65374C11.846 0.137445 23.0363 4.16795 27.9199 13.9219ZM28.7291 17.4303C28.277 18.0705 27.8584 18.7343 27.4678 19.4204C27.2613 19.7886 26.904 20.4966 26.7534 21.1894C26.7199 21.3517 26.7143 21.6058 26.7143 21.7233C27.0994 21.9136 27.4008 22.0054 27.6463 21.8817C27.9533 21.7295 28.1096 21.3713 28.2603 20.9711C28.6398 19.9671 28.7626 18.6363 28.7291 17.4303Z" fill="#1A1A1A"/>
</g>
</svg>
