<svg width="32" height="32" viewBox="0 0 32 32" fill="none" xmlns="http://www.w3.org/2000/svg">
<g id="SearchOutlined">
<path id="Vector" d="M30.1999 28.2321L20.9249 18.9571C22.3642 17.0964 23.1428 14.8214 23.1428 12.4285C23.1428 9.56423 22.0249 6.87852 20.0035 4.85352C17.9821 2.82852 15.2892 1.71423 12.4285 1.71423C9.56781 1.71423 6.87495 2.83209 4.85352 4.85352C2.82852 6.87495 1.71423 9.56423 1.71423 12.4285C1.71423 15.2892 2.83209 17.9821 4.85352 20.0035C6.87495 22.0285 9.56423 23.1428 12.4285 23.1428C14.8214 23.1428 17.0928 22.3642 18.9535 20.9285L28.2285 30.1999C28.2557 30.2272 28.288 30.2487 28.3236 30.2635C28.3591 30.2782 28.3972 30.2858 28.4357 30.2858C28.4741 30.2858 28.5122 30.2782 28.5478 30.2635C28.5833 30.2487 28.6156 30.2272 28.6428 30.1999L30.1999 28.6464C30.2272 28.6192 30.2487 28.5869 30.2635 28.5513C30.2782 28.5158 30.2858 28.4777 30.2858 28.4392C30.2858 28.4008 30.2782 28.3627 30.2635 28.3271C30.2487 28.2916 30.2272 28.2593 30.1999 28.2321ZM18.0857 18.0857C16.5714 19.5964 14.5642 20.4285 12.4285 20.4285C10.2928 20.4285 8.28566 19.5964 6.77138 18.0857C5.26066 16.5714 4.42852 14.5642 4.42852 12.4285C4.42852 10.2928 5.26066 8.28209 6.77138 6.77138C8.28566 5.26066 10.2928 4.42852 12.4285 4.42852C14.5642 4.42852 16.5749 5.25709 18.0857 6.77138C19.5964 8.28566 20.4285 10.2928 20.4285 12.4285C20.4285 14.5642 19.5964 16.5749 18.0857 18.0857Z" fill="#6365EE"/>
</g>
</svg>
